<svg width="20" height="20" viewBox="0 0 20 20" fill="none" xmlns="http://www.w3.org/2000/svg">
<path d="M20 10.2398C20 9.56447 19.9333 8.86732 19.8222 8.21373H10.1973V12.0699H15.7099C15.4876 13.3117 14.7541 14.401 13.6649 15.0981L16.9547 17.6035C18.8886 15.8389 20 13.2681 20 10.2398Z" fill="#4280EF"/>
<path d="M10.1973 20C12.9536 20 15.2654 19.1068 16.9547 17.5817L13.6649 15.0981C12.7535 15.7081 11.5754 16.0567 10.1973 16.0567C7.52987 16.0567 5.2848 14.292 4.46235 11.9392L1.08363 14.4881C2.81745 17.865 6.32954 20 10.1973 20Z" fill="#34A353"/>
<path d="M4.46235 11.9174C4.04001 10.6756 4.04001 9.32482 4.46235 8.08301L1.08363 5.51226C-0.361211 8.34445 -0.361211 11.6777 1.08363 14.4881L4.46235 11.9174Z" fill="#F6B704"/>
<path d="M10.1973 3.96545C11.6421 3.94366 13.0647 4.48831 14.1095 5.46869L17.0214 2.59292C15.1764 0.893609 12.7313 -0.0214058 10.1973 0.00038023C6.32954 0.00038023 2.81745 2.13542 1.08363 5.51226L4.46235 8.08301C5.2848 5.70833 7.52987 3.96545 10.1973 3.96545Z" fill="#E54335"/>
</svg>
