<svg width="28" height="28" viewBox="0 0 28 28" fill="none" xmlns="http://www.w3.org/2000/svg">
<path d="M26.2495 0H1.74951V19.6H26.2495V0Z" fill="#337400"/>
<path d="M-0.000488281 4.2V26.6H27.9995V4.2H-0.000488281Z" fill="#60DA00"/>
<path d="M3.49951 1.4L-0.000488281 4.2H3.49951V1.4Z" fill="#449A00"/>
<path d="M1.74951 0V2.8L3.49951 1.4L1.74951 0Z" fill="#60DA00"/>
<path d="M24.4995 1.4L27.9995 4.2H24.4995V1.4Z" fill="#449A00"/>
<path d="M26.2495 0V2.8L24.4995 1.4L26.2495 0Z" fill="#60DA00"/>
<path d="M13.9995 21C18.8313 21 22.7495 17.78 22.7495 14V9.8H20.9995V14C20.9995 17.08 17.8653 19.6 13.9995 19.6C10.1336 19.6 6.99951 17.08 6.99951 14V9.8H5.24951V14C5.24951 17.78 9.16706 21 13.9995 21Z" fill="#449A00"/>
<path d="M13.9995 19.6C9.16706 19.6 5.24951 16.38 5.24951 12.6V8.4H6.99951V12.6C6.99951 15.68 10.1336 18.2 13.9995 18.2C17.8653 18.2 20.9995 15.68 20.9995 12.6V8.4H22.7495V12.6C22.7495 16.38 18.8313 19.6 13.9995 19.6Z" fill="#ECF0F1"/>
<path d="M22.7495 7V8.4H20.9995V7H22.7495ZM6.99951 7V8.4H5.24951V7H6.99951Z" fill="#449A00"/>
<path d="M-0.000488281 26.6L1.74951 28H26.2495L27.9995 26.6H-0.000488281Z" fill="#449A00"/>
</svg>
