<svg width="28" height="28" viewBox="0 0 28 28" fill="none" xmlns="http://www.w3.org/2000/svg">
<path d="M0.149369 26.3206C2.13929 22.7221 5.32449 20.0213 9.09429 18.7359C7.28733 17.6079 5.88314 15.8884 5.09742 13.8414C4.31171 11.7944 4.18793 9.53327 4.74511 7.4053C5.30229 5.27732 6.5096 3.40023 8.18158 2.0624C9.85355 0.724571 11.8977 0 14 0C16.1023 0 18.1464 0.724571 19.8184 2.0624C21.4904 3.40023 22.6977 5.27732 23.2549 7.4053C23.8121 9.53327 23.6883 11.7944 22.9026 13.8414C22.1169 15.8884 20.7127 17.6079 18.9057 18.7359C22.6755 20.0213 25.8607 22.7221 27.8506 26.3206C27.9483 26.4893 28 26.683 28 26.8804C28 27.0778 27.9483 27.2715 27.8506 27.4402C27.7595 27.6117 27.6259 27.7543 27.464 27.8528C27.3021 27.9513 27.1179 28.0021 26.9308 27.9999H1.06919C0.882076 28.0021 0.697861 27.9513 0.535972 27.8528C0.374083 27.7543 0.240521 27.6117 0.149369 27.4402C0.0516703 27.2715 -1.4155e-06 27.0778 -1.4155e-06 26.8804C-1.4155e-06 26.683 0.0516703 26.4893 0.149369 26.3206Z" fill="#60DA00"/>
</svg>
