<svg width="151" height="48" viewBox="0 0 151 48" fill="none" xmlns="http://www.w3.org/2000/svg">
<rect x="0.5" y="0.5" width="150" height="47" rx="9.5" fill="white" stroke="#989898"/>
<path d="M61.96 17V8.6H65.068C65.88 8.6 66.6 8.766 67.228 9.098C67.856 9.43 68.348 9.91 68.704 10.538C69.064 11.162 69.244 11.916 69.244 12.8C69.244 13.684 69.064 14.44 68.704 15.068C68.348 15.692 67.856 16.17 67.228 16.502C66.6 16.834 65.88 17 65.068 17H61.96ZM63.1 15.968H65.068C65.708 15.968 66.244 15.836 66.676 15.572C67.112 15.304 67.44 14.932 67.66 14.456C67.884 13.98 67.996 13.428 67.996 12.8C67.996 12.172 67.884 11.62 67.66 11.144C67.44 10.668 67.112 10.298 66.676 10.034C66.244 9.766 65.708 9.632 65.068 9.632H63.1V15.968ZM70.3687 17V11.12H71.4487V17H70.3687ZM70.3687 9.8V8.6H71.4487V9.8H70.3687ZM74.5797 17.12C74.0597 17.12 73.6277 17.058 73.2837 16.934C72.9437 16.81 72.7037 16.7 72.5637 16.604L72.6957 15.56C72.8237 15.672 73.0497 15.8 73.3737 15.944C73.6977 16.088 74.0837 16.16 74.5317 16.16C74.9117 16.16 75.2017 16.096 75.4017 15.968C75.6057 15.84 75.7077 15.66 75.7077 15.428C75.7077 15.224 75.6417 15.06 75.5097 14.936C75.3817 14.808 75.2257 14.708 75.0417 14.636C74.8617 14.56 74.6917 14.5 74.5317 14.456C74.2637 14.384 73.9857 14.294 73.6977 14.186C73.4137 14.074 73.1737 13.908 72.9777 13.688C72.7817 13.468 72.6837 13.16 72.6837 12.764C72.6837 12.464 72.7557 12.18 72.8997 11.912C73.0437 11.64 73.2777 11.42 73.6017 11.252C73.9257 11.084 74.3557 11 74.8917 11C75.2837 11 75.6017 11.042 75.8457 11.126C76.0937 11.206 76.3077 11.292 76.4877 11.384L76.3557 12.368C76.1837 12.224 75.9837 12.102 75.7557 12.002C75.5277 11.902 75.2477 11.852 74.9157 11.852C74.5797 11.852 74.3057 11.916 74.0937 12.044C73.8817 12.168 73.7757 12.368 73.7757 12.644C73.7757 12.92 73.8877 13.116 74.1117 13.232C74.3397 13.348 74.6837 13.476 75.1437 13.616C75.2877 13.656 75.4537 13.714 75.6417 13.79C75.8337 13.866 76.0197 13.968 76.1997 14.096C76.3797 14.224 76.5277 14.392 76.6437 14.6C76.7637 14.804 76.8237 15.06 76.8237 15.368C76.8237 15.628 76.7617 15.894 76.6377 16.166C76.5137 16.434 76.2897 16.66 75.9657 16.844C75.6417 17.028 75.1797 17.12 74.5797 17.12ZM77.8804 19.904V11.12H78.7204L78.9124 12.464L78.6124 12.248C78.8604 11.864 79.1664 11.56 79.5304 11.336C79.8944 11.112 80.3404 11 80.8684 11C81.4044 11 81.8644 11.136 82.2484 11.408C82.6324 11.68 82.9264 12.048 83.1304 12.512C83.3344 12.972 83.4364 13.488 83.4364 14.06C83.4364 14.632 83.3404 15.15 83.1484 15.614C82.9564 16.074 82.6704 16.44 82.2904 16.712C81.9104 16.984 81.4364 17.12 80.8684 17.12C80.4004 17.12 79.9764 17.024 79.5964 16.832C79.2204 16.636 78.9484 16.344 78.7804 15.956L78.9604 15.74V19.904H77.8804ZM80.6644 16.16C81.1884 16.16 81.5964 15.976 81.8884 15.608C82.1844 15.236 82.3324 14.72 82.3324 14.06C82.3324 13.4 82.1844 12.886 81.8884 12.518C81.5964 12.146 81.1884 11.96 80.6644 11.96C80.3404 11.96 80.0444 12.038 79.7764 12.194C79.5124 12.346 79.3004 12.578 79.1404 12.89C78.9804 13.198 78.9004 13.588 78.9004 14.06C78.9004 14.552 78.9804 14.952 79.1404 15.26C79.3004 15.568 79.5124 15.796 79.7764 15.944C80.0444 16.088 80.3404 16.16 80.6644 16.16ZM87.1281 17.12C86.5121 17.12 85.9861 16.984 85.5501 16.712C85.1181 16.436 84.7861 16.068 84.5541 15.608C84.3261 15.144 84.2121 14.628 84.2121 14.06C84.2121 13.492 84.3261 12.978 84.5541 12.518C84.7861 12.054 85.1181 11.686 85.5501 11.414C85.9861 11.138 86.5121 11 87.1281 11C87.7401 11 88.2641 11.138 88.7001 11.414C89.1361 11.686 89.4681 12.054 89.6961 12.518C89.9281 12.978 90.0441 13.492 90.0441 14.06C90.0441 14.628 89.9281 15.144 89.6961 15.608C89.4681 16.068 89.1361 16.436 88.7001 16.712C88.2641 16.984 87.7401 17.12 87.1281 17.12ZM87.1281 16.16C87.7121 16.16 88.1601 15.976 88.4721 15.608C88.7841 15.236 88.9401 14.72 88.9401 14.06C88.9401 13.4 88.7841 12.886 88.4721 12.518C88.1601 12.146 87.7121 11.96 87.1281 11.96C86.5481 11.96 86.1001 12.146 85.7841 12.518C85.4721 12.886 85.3161 13.4 85.3161 14.06C85.3161 14.72 85.4721 15.236 85.7841 15.608C86.1001 15.976 86.5481 16.16 87.1281 16.16ZM91.1578 17V11.12H91.9978L92.2138 12.248L91.7938 12.068C92.1898 11.628 92.5758 11.34 92.9518 11.204C93.3318 11.068 93.7018 11 94.0618 11C94.9218 11 95.5358 11.248 95.9038 11.744C96.2758 12.24 96.4618 12.912 96.4618 13.76V17H95.3818V13.76C95.3818 13.136 95.2658 12.68 95.0338 12.392C94.8018 12.104 94.4058 11.96 93.8458 11.96C93.4498 11.96 93.0858 12.048 92.7538 12.224C92.4258 12.396 92.2098 12.672 92.1058 13.052L92.2378 12.392V17H91.1578ZM97.8609 17V11.12H98.9409V17H97.8609ZM97.2849 10.088V9.356L99.5289 8.036V9.212L97.2849 10.088ZM102.024 17L99.7799 11.12H100.98L102.624 15.812L104.256 11.12H105.468L103.236 17H102.024ZM109.025 17.12C108.333 17.12 107.751 16.978 107.279 16.694C106.807 16.41 106.449 16.034 106.205 15.566C105.965 15.094 105.845 14.576 105.845 14.012C105.845 13.464 105.957 12.962 106.181 12.506C106.409 12.05 106.737 11.686 107.165 11.414C107.597 11.138 108.117 11 108.725 11C109.213 11 109.647 11.098 110.027 11.294C110.411 11.486 110.711 11.768 110.927 12.14C111.147 12.508 111.257 12.956 111.257 13.484C111.257 13.568 111.253 13.66 111.245 13.76C111.241 13.856 111.229 13.956 111.209 14.06H106.949C107.001 14.604 107.131 15.028 107.339 15.332C107.547 15.636 107.809 15.85 108.125 15.974C108.441 16.098 108.785 16.16 109.157 16.16C109.429 16.16 109.713 16.132 110.009 16.076C110.305 16.02 110.585 15.932 110.849 15.812L110.993 16.664C110.765 16.764 110.487 16.866 110.159 16.97C109.831 17.07 109.453 17.12 109.025 17.12ZM107.045 13.316H110.141C110.141 13.04 110.089 12.8 109.985 12.596C109.881 12.392 109.723 12.236 109.511 12.128C109.299 12.016 109.029 11.96 108.701 11.96C108.221 11.96 107.851 12.08 107.591 12.32C107.335 12.556 107.153 12.888 107.045 13.316ZM113.857 17.12C113.477 17.12 113.175 17.052 112.951 16.916C112.731 16.776 112.573 16.598 112.477 16.382C112.381 16.166 112.333 15.94 112.333 15.704V8H113.413V15.08C113.413 15.416 113.435 15.668 113.479 15.836C113.523 16.004 113.611 16.116 113.743 16.172C113.879 16.228 114.085 16.256 114.361 16.256L114.205 17.12H113.857ZM117.877 17V11.12H118.717L118.933 12.248L118.513 12.068C118.909 11.628 119.295 11.34 119.671 11.204C120.051 11.068 120.421 11 120.781 11C121.641 11 122.255 11.248 122.623 11.744C122.995 12.24 123.181 12.912 123.181 13.76V17H122.101V13.76C122.101 13.136 121.985 12.68 121.753 12.392C121.521 12.104 121.125 11.96 120.565 11.96C120.169 11.96 119.805 12.048 119.473 12.224C119.145 12.396 118.929 12.672 118.825 13.052L118.957 12.392V17H117.877ZM125.948 17.12C125.584 17.12 125.266 17.046 124.994 16.898C124.722 16.75 124.51 16.548 124.358 16.292C124.21 16.036 124.136 15.744 124.136 15.416C124.136 15.084 124.208 14.8 124.352 14.564C124.5 14.324 124.696 14.126 124.94 13.97C125.188 13.81 125.464 13.684 125.768 13.592C126.072 13.496 126.386 13.428 126.71 13.388C127.038 13.344 127.352 13.32 127.652 13.316C127.652 12.756 127.542 12.39 127.322 12.218C127.102 12.046 126.784 11.96 126.368 11.96C126.148 11.96 125.912 11.994 125.66 12.062C125.412 12.13 125.132 12.272 124.82 12.488L124.664 11.612C124.9 11.432 125.194 11.286 125.546 11.174C125.898 11.058 126.268 11 126.656 11C127.152 11 127.552 11.088 127.856 11.264C128.16 11.436 128.382 11.728 128.522 12.14C128.662 12.552 128.732 13.112 128.732 13.82V15.02C128.732 15.3 128.744 15.532 128.768 15.716C128.796 15.896 128.856 16.032 128.948 16.124C129.044 16.212 129.196 16.256 129.404 16.256H129.512L129.344 17.12H129.26C128.912 17.12 128.642 17.086 128.45 17.018C128.262 16.95 128.118 16.852 128.018 16.724C127.918 16.596 127.828 16.44 127.748 16.256C127.528 16.512 127.268 16.72 126.968 16.88C126.668 17.04 126.328 17.12 125.948 17.12ZM126.152 16.256C126.44 16.256 126.718 16.184 126.986 16.04C127.258 15.896 127.48 15.704 127.652 15.464V14.06C127.08 14.08 126.616 14.136 126.26 14.228C125.908 14.32 125.65 14.458 125.486 14.642C125.322 14.826 125.24 15.064 125.24 15.356C125.24 15.672 125.324 15.902 125.492 16.046C125.664 16.186 125.884 16.256 126.152 16.256Z" fill="#989898"/>
<path d="M61.18 31.68H55.32V29.44H61.18V31.68ZM57.92 23.5H58.58L54.54 35H52.06L57.04 21H59.46L64.44 35H61.96L57.92 23.5ZM65.66 39.84V25H67.66L68.14 26.66L67.4 26.4C67.86 25.9267 68.36 25.55 68.9 25.27C69.44 24.9833 70.1 24.84 70.88 24.84C71.86 24.84 72.6833 25.0767 73.35 25.55C74.0167 26.0233 74.52 26.6533 74.86 27.44C75.2067 28.2267 75.38 29.0867 75.38 30.02C75.38 30.9533 75.2067 31.8133 74.86 32.6C74.52 33.3867 74.0167 34.0167 73.35 34.49C72.6833 34.9633 71.86 35.2 70.88 35.2C70.1 35.2 69.4667 35.0933 68.98 34.88C68.4933 34.6667 68 34.3267 67.5 33.86L68.14 33.36V39.84H65.66ZM70.5 33.16C71.24 33.16 71.8133 32.87 72.22 32.29C72.6333 31.7033 72.84 30.9467 72.84 30.02C72.84 29.0867 72.6333 28.33 72.22 27.75C71.8133 27.17 71.24 26.88 70.5 26.88C69.9267 26.88 69.4567 27.0133 69.09 27.28C68.7233 27.5467 68.4533 27.9167 68.28 28.39C68.1067 28.8567 68.02 29.4 68.02 30.02C68.02 30.64 68.1067 31.1867 68.28 31.66C68.4533 32.1267 68.7233 32.4933 69.09 32.76C69.4567 33.0267 69.9267 33.16 70.5 33.16ZM77.1053 39.84V25H79.1053L79.5853 26.66L78.8453 26.4C79.3053 25.9267 79.8053 25.55 80.3453 25.27C80.8853 24.9833 81.5453 24.84 82.3253 24.84C83.3053 24.84 84.1286 25.0767 84.7953 25.55C85.462 26.0233 85.9653 26.6533 86.3053 27.44C86.652 28.2267 86.8253 29.0867 86.8253 30.02C86.8253 30.9533 86.652 31.8133 86.3053 32.6C85.9653 33.3867 85.462 34.0167 84.7953 34.49C84.1286 34.9633 83.3053 35.2 82.3253 35.2C81.5453 35.2 80.912 35.0933 80.4253 34.88C79.9386 34.6667 79.4453 34.3267 78.9453 33.86L79.5853 33.36V39.84H77.1053ZM81.9453 33.16C82.6853 33.16 83.2586 32.87 83.6653 32.29C84.0786 31.7033 84.2853 30.9467 84.2853 30.02C84.2853 29.0867 84.0786 28.33 83.6653 27.75C83.2586 27.17 82.6853 26.88 81.9453 26.88C81.372 26.88 80.902 27.0133 80.5353 27.28C80.1686 27.5467 79.8986 27.9167 79.7253 28.39C79.552 28.8567 79.4653 29.4 79.4653 30.02C79.4653 30.64 79.552 31.1867 79.7253 31.66C79.8986 32.1267 80.1686 32.4933 80.5353 32.76C80.902 33.0267 81.372 33.16 81.9453 33.16ZM97.4828 35.28C96.9161 35.28 96.3328 35.2233 95.7328 35.11C95.1328 35.0033 94.5761 34.8733 94.0628 34.72C93.5495 34.56 93.1428 34.4067 92.8428 34.26L93.1428 31.54C93.6095 31.7667 94.0961 31.9767 94.6028 32.17C95.1095 32.3633 95.6295 32.52 96.1628 32.64C96.6961 32.76 97.2361 32.82 97.7828 32.82C98.4628 32.82 99.0095 32.6867 99.4228 32.42C99.8361 32.1533 100.043 31.7467 100.043 31.2C100.043 30.78 99.9261 30.4433 99.6928 30.19C99.4595 29.93 99.1028 29.7 98.6228 29.5C98.1428 29.2933 97.5295 29.06 96.7828 28.8C96.0361 28.54 95.3661 28.2467 94.7728 27.92C94.1795 27.5867 93.7095 27.1667 93.3628 26.66C93.0161 26.1533 92.8428 25.5067 92.8428 24.72C92.8428 23.9467 93.0328 23.26 93.4128 22.66C93.7928 22.0533 94.3595 21.58 95.1128 21.24C95.8728 20.8933 96.8161 20.72 97.9428 20.72C98.7961 20.72 99.6095 20.8167 100.383 21.01C101.156 21.1967 101.816 21.4 102.363 21.62L102.103 24.24C101.316 23.8867 100.576 23.62 99.8828 23.44C99.1961 23.2533 98.4961 23.16 97.7828 23.16C97.0361 23.16 96.4595 23.2833 96.0528 23.53C95.6461 23.7767 95.4428 24.1467 95.4428 24.64C95.4428 25.0333 95.5561 25.35 95.7828 25.59C96.0095 25.83 96.3328 26.0367 96.7528 26.21C97.1728 26.3767 97.6761 26.5533 98.2628 26.74C99.2761 27.06 100.126 27.4133 100.813 27.8C101.506 28.18 102.026 28.6433 102.373 29.19C102.726 29.73 102.903 30.4 102.903 31.2C102.903 31.6 102.839 32.0367 102.713 32.51C102.586 32.9767 102.336 33.42 101.963 33.84C101.589 34.26 101.043 34.6067 100.323 34.88C99.6095 35.1467 98.6628 35.28 97.4828 35.28ZM107.67 35.2C107.043 35.2 106.533 35.0733 106.14 34.82C105.747 34.56 105.457 34.23 105.27 33.83C105.083 33.43 104.99 33.0133 104.99 32.58V27.04H103.57L103.79 25H104.99V22.8L107.47 22.54V25H109.67V27.04H107.47V31.56C107.47 32.0667 107.5 32.4333 107.56 32.66C107.62 32.88 107.757 33.02 107.97 33.08C108.183 33.1333 108.523 33.16 108.99 33.16H109.67L109.45 35.2H107.67ZM115.825 35.2C114.738 35.2 113.812 34.9633 113.045 34.49C112.278 34.0167 111.692 33.3867 111.285 32.6C110.885 31.8133 110.685 30.9533 110.685 30.02C110.685 29.08 110.885 28.2133 111.285 27.42C111.692 26.6267 112.278 25.9933 113.045 25.52C113.812 25.04 114.738 24.8 115.825 24.8C116.912 24.8 117.838 25.04 118.605 25.52C119.372 25.9933 119.955 26.6267 120.355 27.42C120.762 28.2133 120.965 29.08 120.965 30.02C120.965 30.9533 120.762 31.8133 120.355 32.6C119.955 33.3867 119.372 34.0167 118.605 34.49C117.838 34.9633 116.912 35.2 115.825 35.2ZM115.825 33.16C116.658 33.16 117.298 32.87 117.745 32.29C118.198 31.7033 118.425 30.9467 118.425 30.02C118.425 29.08 118.198 28.3167 117.745 27.73C117.298 27.1367 116.658 26.84 115.825 26.84C114.998 26.84 114.358 27.1367 113.905 27.73C113.452 28.3167 113.225 29.08 113.225 30.02C113.225 30.9467 113.452 31.7033 113.905 32.29C114.358 32.87 114.998 33.16 115.825 33.16ZM122.691 35V25H125.011L125.071 26.06C125.325 25.78 125.681 25.5 126.141 25.22C126.601 24.94 127.105 24.8 127.651 24.8C127.811 24.8 127.958 24.8133 128.091 24.84L127.911 27.28C127.765 27.24 127.618 27.2133 127.471 27.2C127.331 27.1867 127.191 27.18 127.051 27.18C126.631 27.18 126.248 27.2767 125.901 27.47C125.555 27.6633 125.311 27.9 125.171 28.18V35H122.691ZM133.937 35.2C132.73 35.2 131.724 34.96 130.917 34.48C130.117 33.9933 129.517 33.3533 129.117 32.56C128.717 31.76 128.517 30.8867 128.517 29.94C128.517 29.0267 128.704 28.1833 129.077 27.41C129.457 26.6367 130.01 26.0167 130.737 25.55C131.464 25.0767 132.35 24.84 133.397 24.84C134.357 24.84 135.157 25.0367 135.797 25.43C136.437 25.8233 136.917 26.35 137.237 27.01C137.557 27.6633 137.717 28.3867 137.717 29.18C137.717 29.4 137.704 29.6233 137.677 29.85C137.65 30.07 137.61 30.3 137.557 30.54H131.097C131.19 31.16 131.384 31.6633 131.677 32.05C131.977 32.43 132.34 32.71 132.767 32.89C133.2 33.07 133.664 33.16 134.157 33.16C134.737 33.16 135.277 33.0867 135.777 32.94C136.277 32.7867 136.737 32.5867 137.157 32.34L137.277 34.44C136.897 34.64 136.424 34.8167 135.857 34.97C135.29 35.1233 134.65 35.2 133.937 35.2ZM131.157 28.86H135.197C135.197 28.56 135.14 28.26 135.027 27.96C134.914 27.6533 134.724 27.3967 134.457 27.19C134.197 26.9833 133.844 26.88 133.397 26.88C132.757 26.88 132.254 27.0667 131.887 27.44C131.52 27.8133 131.277 28.2867 131.157 28.86Z" fill="#989898"/>
<path d="M30.2311 10C33.0311 10 34.4311 10 35.9556 10.4667C37.6044 11.0578 38.9111 12.3644 39.5022 14.0133C40 15.5378 40 16.9689 40 19.7689V28.2311C40 31.0311 40 32.4311 39.5333 33.9556C38.9422 35.6044 37.6356 36.9111 35.9867 37.5022C34.4311 38 33.0311 38 30.2311 38H21.7689C18.9689 38 17.5689 38 16.0444 37.5333C14.3644 36.9111 13.0889 35.6356 12.4667 33.9556C12 32.4622 12 31.0622 12 28.2311V19.7689C12 16.9689 12 15.5689 12.4667 14.0444C13.0889 12.3956 14.3644 11.0889 16.0444 10.4978C17.5378 10 18.9378 10 21.7689 10H30.2311Z" fill="url(#paint0_linear_118_72)"/>
<path d="M18.3157 29.6933C18.3468 29.6311 18.409 29.6 18.4712 29.5689C18.7201 29.5066 18.969 29.4444 19.2179 29.4444C19.9023 29.4444 20.5246 29.6933 21.0223 30.1289C21.0846 30.1911 21.0846 30.2844 21.0534 30.3466L19.7779 32.5244C19.529 32.96 19.0623 33.2089 18.5957 33.2089C18.3157 33.2089 18.0357 33.1155 17.7868 32.9289C17.2268 32.5244 17.1023 31.7155 17.4446 31.1244L18.3157 29.6933ZM34.8979 26.3644C35.6134 26.3644 36.2357 26.8933 36.2979 27.5777C36.3601 28.3866 35.7379 29.0711 34.9601 29.0711H33.3112L34.5246 31.1555C34.8668 31.7466 34.7423 32.5555 34.1823 32.96C33.9334 33.1466 33.6534 33.24 33.3734 33.24C32.9068 33.24 32.4401 32.9911 32.1912 32.5555L29.2668 27.4844L26.9646 23.5022C26.9334 23.4711 26.9334 23.44 26.9334 23.3777C26.9334 23.2222 26.9023 23.0666 26.9023 22.9111C26.9023 21.8222 27.1512 20.7333 27.649 19.8622C27.7112 19.7689 27.8668 19.7689 27.929 19.8622L31.7246 26.3333H34.8979V26.3644ZM27.7423 26.4266C28.4268 26.8311 28.8623 27.6089 28.8623 28.48C28.8623 28.6666 28.8312 28.8222 28.8001 29.0089C28.8001 29.04 28.7379 29.0711 28.7068 29.0711H17.1023C16.3246 29.0711 15.6712 28.3866 15.7646 27.5777C15.8268 26.8622 16.449 26.3644 17.1646 26.3644H20.2446L24.4446 19.1466L23.2934 17.1866C22.889 16.5022 23.169 15.6 23.9157 15.2889C24.569 15.0089 25.3157 15.2889 25.689 15.88L26.0312 16.4711L26.4046 15.8489C26.809 15.1644 27.7112 14.9466 28.3646 15.4133C28.9557 15.8177 29.0801 16.6266 28.7068 17.2489L23.3557 26.3644H27.5246C27.6179 26.3644 27.6801 26.3955 27.7423 26.4266Z" fill="white"/>
<defs>
<linearGradient id="paint0_linear_118_72" x1="25.9956" y1="10.0087" x2="25.9956" y2="37.9994" gradientUnits="userSpaceOnUse">
<stop stop-color="#19E6FF"/>
<stop offset="1" stop-color="#1E51EE"/>
</linearGradient>
</defs>
</svg>
