<svg width="169" height="48" viewBox="0 0 169 48" fill="none" xmlns="http://www.w3.org/2000/svg">
<rect x="0.5" y="0.5" width="168" height="47" rx="9.5" fill="white" stroke="#989898"/>
<path d="M71.96 17V8.6H75.068C75.88 8.6 76.6 8.766 77.228 9.098C77.856 9.43 78.348 9.91 78.704 10.538C79.064 11.162 79.244 11.916 79.244 12.8C79.244 13.684 79.064 14.44 78.704 15.068C78.348 15.692 77.856 16.17 77.228 16.502C76.6 16.834 75.88 17 75.068 17H71.96ZM73.1 15.968H75.068C75.708 15.968 76.244 15.836 76.676 15.572C77.112 15.304 77.44 14.932 77.66 14.456C77.884 13.98 77.996 13.428 77.996 12.8C77.996 12.172 77.884 11.62 77.66 11.144C77.44 10.668 77.112 10.298 76.676 10.034C76.244 9.766 75.708 9.632 75.068 9.632H73.1V15.968ZM80.3687 17V11.12H81.4487V17H80.3687ZM80.3687 9.8V8.6H81.4487V9.8H80.3687ZM84.5797 17.12C84.0597 17.12 83.6277 17.058 83.2837 16.934C82.9437 16.81 82.7037 16.7 82.5637 16.604L82.6957 15.56C82.8237 15.672 83.0497 15.8 83.3737 15.944C83.6977 16.088 84.0837 16.16 84.5317 16.16C84.9117 16.16 85.2017 16.096 85.4017 15.968C85.6057 15.84 85.7077 15.66 85.7077 15.428C85.7077 15.224 85.6417 15.06 85.5097 14.936C85.3817 14.808 85.2257 14.708 85.0417 14.636C84.8617 14.56 84.6917 14.5 84.5317 14.456C84.2637 14.384 83.9857 14.294 83.6977 14.186C83.4137 14.074 83.1737 13.908 82.9777 13.688C82.7817 13.468 82.6837 13.16 82.6837 12.764C82.6837 12.464 82.7557 12.18 82.8997 11.912C83.0437 11.64 83.2777 11.42 83.6017 11.252C83.9257 11.084 84.3557 11 84.8917 11C85.2837 11 85.6017 11.042 85.8457 11.126C86.0937 11.206 86.3077 11.292 86.4877 11.384L86.3557 12.368C86.1837 12.224 85.9837 12.102 85.7557 12.002C85.5277 11.902 85.2477 11.852 84.9157 11.852C84.5797 11.852 84.3057 11.916 84.0937 12.044C83.8817 12.168 83.7757 12.368 83.7757 12.644C83.7757 12.92 83.8877 13.116 84.1117 13.232C84.3397 13.348 84.6837 13.476 85.1437 13.616C85.2877 13.656 85.4537 13.714 85.6417 13.79C85.8337 13.866 86.0197 13.968 86.1997 14.096C86.3797 14.224 86.5277 14.392 86.6437 14.6C86.7637 14.804 86.8237 15.06 86.8237 15.368C86.8237 15.628 86.7617 15.894 86.6377 16.166C86.5137 16.434 86.2897 16.66 85.9657 16.844C85.6417 17.028 85.1797 17.12 84.5797 17.12ZM87.8804 19.904V11.12H88.7204L88.9124 12.464L88.6124 12.248C88.8604 11.864 89.1664 11.56 89.5304 11.336C89.8944 11.112 90.3404 11 90.8684 11C91.4044 11 91.8644 11.136 92.2484 11.408C92.6324 11.68 92.9264 12.048 93.1304 12.512C93.3344 12.972 93.4364 13.488 93.4364 14.06C93.4364 14.632 93.3404 15.15 93.1484 15.614C92.9564 16.074 92.6704 16.44 92.2904 16.712C91.9104 16.984 91.4364 17.12 90.8684 17.12C90.4004 17.12 89.9764 17.024 89.5964 16.832C89.2204 16.636 88.9484 16.344 88.7804 15.956L88.9604 15.74V19.904H87.8804ZM90.6644 16.16C91.1884 16.16 91.5964 15.976 91.8884 15.608C92.1844 15.236 92.3324 14.72 92.3324 14.06C92.3324 13.4 92.1844 12.886 91.8884 12.518C91.5964 12.146 91.1884 11.96 90.6644 11.96C90.3404 11.96 90.0444 12.038 89.7764 12.194C89.5124 12.346 89.3004 12.578 89.1404 12.89C88.9804 13.198 88.9004 13.588 88.9004 14.06C88.9004 14.552 88.9804 14.952 89.1404 15.26C89.3004 15.568 89.5124 15.796 89.7764 15.944C90.0444 16.088 90.3404 16.16 90.6644 16.16ZM97.1281 17.12C96.5121 17.12 95.9861 16.984 95.5501 16.712C95.1181 16.436 94.7861 16.068 94.5541 15.608C94.3261 15.144 94.2121 14.628 94.2121 14.06C94.2121 13.492 94.3261 12.978 94.5541 12.518C94.7861 12.054 95.1181 11.686 95.5501 11.414C95.9861 11.138 96.5121 11 97.1281 11C97.7401 11 98.2641 11.138 98.7001 11.414C99.1361 11.686 99.4681 12.054 99.6961 12.518C99.9281 12.978 100.044 13.492 100.044 14.06C100.044 14.628 99.9281 15.144 99.6961 15.608C99.4681 16.068 99.1361 16.436 98.7001 16.712C98.2641 16.984 97.7401 17.12 97.1281 17.12ZM97.1281 16.16C97.7121 16.16 98.1601 15.976 98.4721 15.608C98.7841 15.236 98.9401 14.72 98.9401 14.06C98.9401 13.4 98.7841 12.886 98.4721 12.518C98.1601 12.146 97.7121 11.96 97.1281 11.96C96.5481 11.96 96.1001 12.146 95.7841 12.518C95.4721 12.886 95.3161 13.4 95.3161 14.06C95.3161 14.72 95.4721 15.236 95.7841 15.608C96.1001 15.976 96.5481 16.16 97.1281 16.16ZM101.158 17V11.12H101.998L102.214 12.248L101.794 12.068C102.19 11.628 102.576 11.34 102.952 11.204C103.332 11.068 103.702 11 104.062 11C104.922 11 105.536 11.248 105.904 11.744C106.276 12.24 106.462 12.912 106.462 13.76V17H105.382V13.76C105.382 13.136 105.266 12.68 105.034 12.392C104.802 12.104 104.406 11.96 103.846 11.96C103.45 11.96 103.086 12.048 102.754 12.224C102.426 12.396 102.21 12.672 102.106 13.052L102.238 12.392V17H101.158ZM107.861 17V11.12H108.941V17H107.861ZM107.285 10.088V9.356L109.529 8.036V9.212L107.285 10.088ZM112.024 17L109.78 11.12H110.98L112.624 15.812L114.256 11.12H115.468L113.236 17H112.024ZM119.025 17.12C118.333 17.12 117.751 16.978 117.279 16.694C116.807 16.41 116.449 16.034 116.205 15.566C115.965 15.094 115.845 14.576 115.845 14.012C115.845 13.464 115.957 12.962 116.181 12.506C116.409 12.05 116.737 11.686 117.165 11.414C117.597 11.138 118.117 11 118.725 11C119.213 11 119.647 11.098 120.027 11.294C120.411 11.486 120.711 11.768 120.927 12.14C121.147 12.508 121.257 12.956 121.257 13.484C121.257 13.568 121.253 13.66 121.245 13.76C121.241 13.856 121.229 13.956 121.209 14.06H116.949C117.001 14.604 117.131 15.028 117.339 15.332C117.547 15.636 117.809 15.85 118.125 15.974C118.441 16.098 118.785 16.16 119.157 16.16C119.429 16.16 119.713 16.132 120.009 16.076C120.305 16.02 120.585 15.932 120.849 15.812L120.993 16.664C120.765 16.764 120.487 16.866 120.159 16.97C119.831 17.07 119.453 17.12 119.025 17.12ZM117.045 13.316H120.141C120.141 13.04 120.089 12.8 119.985 12.596C119.881 12.392 119.723 12.236 119.511 12.128C119.299 12.016 119.029 11.96 118.701 11.96C118.221 11.96 117.851 12.08 117.591 12.32C117.335 12.556 117.153 12.888 117.045 13.316ZM123.857 17.12C123.477 17.12 123.175 17.052 122.951 16.916C122.731 16.776 122.573 16.598 122.477 16.382C122.381 16.166 122.333 15.94 122.333 15.704V8H123.413V15.08C123.413 15.416 123.435 15.668 123.479 15.836C123.523 16.004 123.611 16.116 123.743 16.172C123.879 16.228 124.085 16.256 124.361 16.256L124.205 17.12H123.857ZM127.877 17V11.12H128.717L128.933 12.248L128.513 12.068C128.909 11.628 129.295 11.34 129.671 11.204C130.051 11.068 130.421 11 130.781 11C131.641 11 132.255 11.248 132.623 11.744C132.995 12.24 133.181 12.912 133.181 13.76V17H132.101V13.76C132.101 13.136 131.985 12.68 131.753 12.392C131.521 12.104 131.125 11.96 130.565 11.96C130.169 11.96 129.805 12.048 129.473 12.224C129.145 12.396 128.929 12.672 128.825 13.052L128.957 12.392V17H127.877ZM135.948 17.12C135.584 17.12 135.266 17.046 134.994 16.898C134.722 16.75 134.51 16.548 134.358 16.292C134.21 16.036 134.136 15.744 134.136 15.416C134.136 15.084 134.208 14.8 134.352 14.564C134.5 14.324 134.696 14.126 134.94 13.97C135.188 13.81 135.464 13.684 135.768 13.592C136.072 13.496 136.386 13.428 136.71 13.388C137.038 13.344 137.352 13.32 137.652 13.316C137.652 12.756 137.542 12.39 137.322 12.218C137.102 12.046 136.784 11.96 136.368 11.96C136.148 11.96 135.912 11.994 135.66 12.062C135.412 12.13 135.132 12.272 134.82 12.488L134.664 11.612C134.9 11.432 135.194 11.286 135.546 11.174C135.898 11.058 136.268 11 136.656 11C137.152 11 137.552 11.088 137.856 11.264C138.16 11.436 138.382 11.728 138.522 12.14C138.662 12.552 138.732 13.112 138.732 13.82V15.02C138.732 15.3 138.744 15.532 138.768 15.716C138.796 15.896 138.856 16.032 138.948 16.124C139.044 16.212 139.196 16.256 139.404 16.256H139.512L139.344 17.12H139.26C138.912 17.12 138.642 17.086 138.45 17.018C138.262 16.95 138.118 16.852 138.018 16.724C137.918 16.596 137.828 16.44 137.748 16.256C137.528 16.512 137.268 16.72 136.968 16.88C136.668 17.04 136.328 17.12 135.948 17.12ZM136.152 16.256C136.44 16.256 136.718 16.184 136.986 16.04C137.258 15.896 137.48 15.704 137.652 15.464V14.06C137.08 14.08 136.616 14.136 136.26 14.228C135.908 14.32 135.65 14.458 135.486 14.642C135.322 14.826 135.24 15.064 135.24 15.356C135.24 15.672 135.324 15.902 135.492 16.046C135.664 16.186 135.884 16.256 136.152 16.256Z" fill="#989898"/>
<path d="M60.76 35.28C59.28 35.28 58.0133 34.98 56.96 34.38C55.9067 33.7733 55.1 32.9233 54.54 31.83C53.98 30.7367 53.7 29.4533 53.7 27.98C53.7 26.52 54.01 25.2467 54.63 24.16C55.2567 23.0667 56.12 22.22 57.22 21.62C58.32 21.02 59.5867 20.72 61.02 20.72C61.76 20.72 62.4667 20.7967 63.14 20.95C63.82 21.1033 64.4 21.3 64.88 21.54L64.6 23.98C64.1 23.7467 63.5467 23.5567 62.94 23.41C62.34 23.2567 61.7 23.18 61.02 23.18C59.98 23.18 59.1267 23.39 58.46 23.81C57.7933 24.2233 57.3 24.79 56.98 25.51C56.66 26.2233 56.5 27.0333 56.5 27.94C56.5 28.8933 56.66 29.7367 56.98 30.47C57.3067 31.2033 57.7933 31.78 58.44 32.2C59.0867 32.6133 59.8933 32.82 60.86 32.82C61.1533 32.82 61.46 32.8 61.78 32.76C62.1067 32.72 62.44 32.6667 62.78 32.6V30.1H60.86V27.98H65.34V34.22C64.8533 34.5067 64.2067 34.7567 63.4 34.97C62.6 35.1767 61.72 35.28 60.76 35.28ZM71.8836 35.2C70.7969 35.2 69.8703 34.9633 69.1036 34.49C68.3369 34.0167 67.7503 33.3867 67.3436 32.6C66.9436 31.8133 66.7436 30.9533 66.7436 30.02C66.7436 29.08 66.9436 28.2133 67.3436 27.42C67.7503 26.6267 68.3369 25.9933 69.1036 25.52C69.8703 25.04 70.7969 24.8 71.8836 24.8C72.9703 24.8 73.8969 25.04 74.6636 25.52C75.4303 25.9933 76.0136 26.6267 76.4136 27.42C76.8203 28.2133 77.0236 29.08 77.0236 30.02C77.0236 30.9533 76.8203 31.8133 76.4136 32.6C76.0136 33.3867 75.4303 34.0167 74.6636 34.49C73.8969 34.9633 72.9703 35.2 71.8836 35.2ZM71.8836 33.16C72.7169 33.16 73.3569 32.87 73.8036 32.29C74.2569 31.7033 74.4836 30.9467 74.4836 30.02C74.4836 29.08 74.2569 28.3167 73.8036 27.73C73.3569 27.1367 72.7169 26.84 71.8836 26.84C71.0569 26.84 70.4169 27.1367 69.9636 27.73C69.5103 28.3167 69.2836 29.08 69.2836 30.02C69.2836 30.9467 69.5103 31.7033 69.9636 32.29C70.4169 32.87 71.0569 33.16 71.8836 33.16ZM83.2898 35.2C82.2032 35.2 81.2765 34.9633 80.5098 34.49C79.7432 34.0167 79.1565 33.3867 78.7498 32.6C78.3498 31.8133 78.1498 30.9533 78.1498 30.02C78.1498 29.08 78.3498 28.2133 78.7498 27.42C79.1565 26.6267 79.7432 25.9933 80.5098 25.52C81.2765 25.04 82.2032 24.8 83.2898 24.8C84.3765 24.8 85.3032 25.04 86.0698 25.52C86.8365 25.9933 87.4198 26.6267 87.8198 27.42C88.2265 28.2133 88.4298 29.08 88.4298 30.02C88.4298 30.9533 88.2265 31.8133 87.8198 32.6C87.4198 33.3867 86.8365 34.0167 86.0698 34.49C85.3032 34.9633 84.3765 35.2 83.2898 35.2ZM83.2898 33.16C84.1232 33.16 84.7632 32.87 85.2098 32.29C85.6632 31.7033 85.8898 30.9467 85.8898 30.02C85.8898 29.08 85.6632 28.3167 85.2098 27.73C84.7632 27.1367 84.1232 26.84 83.2898 26.84C82.4632 26.84 81.8232 27.1367 81.3698 27.73C80.9165 28.3167 80.6898 29.08 80.6898 30.02C80.6898 30.9467 80.9165 31.7033 81.3698 32.29C81.8232 32.87 82.4632 33.16 83.2898 33.16ZM94.1161 40.04C93.1828 40.04 92.3661 39.9233 91.6661 39.69C90.9728 39.4633 90.4328 39.1367 90.0461 38.71C89.6661 38.2833 89.4761 37.7733 89.4761 37.18C89.4761 36.68 89.6128 36.2333 89.8861 35.84C90.1661 35.4533 90.5694 35.1133 91.0961 34.82C90.8294 34.66 90.6161 34.46 90.4561 34.22C90.2961 33.98 90.2161 33.7067 90.2161 33.4C90.2161 33.08 90.3061 32.8033 90.4861 32.57C90.6728 32.33 90.9161 32.14 91.2161 32C90.7094 31.64 90.3261 31.18 90.0661 30.62C89.8061 30.0533 89.6761 29.44 89.6761 28.78C89.6761 28.06 89.8328 27.4 90.1461 26.8C90.4594 26.1933 90.9161 25.71 91.5161 25.35C92.1228 24.9833 92.8628 24.8 93.7361 24.8C94.1894 24.8 94.6061 24.8567 94.9861 24.97C95.3728 25.0833 95.7161 25.24 96.0161 25.44C96.2161 25.3267 96.5061 25.2267 96.8861 25.14C97.2661 25.0467 97.6894 25 98.1561 25C98.2694 25 98.3761 25 98.4761 25C98.5828 25 98.6894 25 98.7961 25L98.6361 26.56C98.4894 26.56 98.3394 26.56 98.1861 26.56C98.0394 26.56 97.8894 26.56 97.7361 26.56C97.6761 26.56 97.5961 26.56 97.4961 26.56C97.3961 26.56 97.2894 26.5667 97.1761 26.58C97.3761 26.8867 97.5261 27.23 97.6261 27.61C97.7261 27.99 97.7761 28.38 97.7761 28.78C97.7761 29.5 97.6194 30.1633 97.3061 30.77C96.9994 31.37 96.5461 31.8533 95.9461 32.22C95.3461 32.58 94.6094 32.76 93.7361 32.76C93.5494 32.76 93.3694 32.7467 93.1961 32.72C93.0228 32.6933 92.8494 32.66 92.6761 32.62C92.5294 32.68 92.4561 32.7867 92.4561 32.94C92.4561 33.12 92.5661 33.2567 92.7861 33.35C93.0061 33.4433 93.3494 33.5267 93.8161 33.6L95.5361 33.82C96.6094 33.96 97.4494 34.2633 98.0561 34.73C98.6694 35.1967 98.9761 35.86 98.9761 36.72C98.9761 37.3867 98.7828 37.9667 98.3961 38.46C98.0161 38.96 97.4628 39.3467 96.7361 39.62C96.0094 39.9 95.1361 40.04 94.1161 40.04ZM94.2161 38.16C95.0561 38.16 95.6928 38.0567 96.1261 37.85C96.5594 37.6433 96.7761 37.3267 96.7761 36.9C96.7761 36.52 96.6228 36.24 96.3161 36.06C96.0161 35.88 95.5361 35.74 94.8761 35.64L92.6861 35.32C92.3594 35.4467 92.0861 35.62 91.8661 35.84C91.6461 36.0667 91.5361 36.36 91.5361 36.72C91.5361 37.2067 91.7728 37.5667 92.2461 37.8C92.7194 38.04 93.3761 38.16 94.2161 38.16ZM93.7361 30.92C94.3294 30.92 94.7761 30.7267 95.0761 30.34C95.3828 29.9467 95.5361 29.4267 95.5361 28.78C95.5361 28.1267 95.3828 27.6067 95.0761 27.22C94.7761 26.8333 94.3294 26.64 93.7361 26.64C93.1361 26.64 92.6828 26.8333 92.3761 27.22C92.0694 27.6067 91.9161 28.1267 91.9161 28.78C91.9161 29.4267 92.0694 29.9467 92.3761 30.34C92.6828 30.7267 93.1361 30.92 93.7361 30.92ZM102.736 35.2C102.142 35.2 101.656 35.0833 101.276 34.85C100.902 34.61 100.626 34.2933 100.446 33.9C100.266 33.5 100.176 33.06 100.176 32.58V20H102.656V31.56C102.656 32.0933 102.686 32.4733 102.746 32.7C102.812 32.92 102.932 33.0533 103.106 33.1C103.279 33.14 103.529 33.16 103.856 33.16L103.636 35.2H102.736ZM110.152 35.2C108.945 35.2 107.939 34.96 107.132 34.48C106.332 33.9933 105.732 33.3533 105.332 32.56C104.932 31.76 104.732 30.8867 104.732 29.94C104.732 29.0267 104.919 28.1833 105.292 27.41C105.672 26.6367 106.225 26.0167 106.952 25.55C107.679 25.0767 108.565 24.84 109.612 24.84C110.572 24.84 111.372 25.0367 112.012 25.43C112.652 25.8233 113.132 26.35 113.452 27.01C113.772 27.6633 113.932 28.3867 113.932 29.18C113.932 29.4 113.919 29.6233 113.892 29.85C113.865 30.07 113.825 30.3 113.772 30.54H107.312C107.405 31.16 107.599 31.6633 107.892 32.05C108.192 32.43 108.555 32.71 108.982 32.89C109.415 33.07 109.879 33.16 110.372 33.16C110.952 33.16 111.492 33.0867 111.992 32.94C112.492 32.7867 112.952 32.5867 113.372 32.34L113.492 34.44C113.112 34.64 112.639 34.8167 112.072 34.97C111.505 35.1233 110.865 35.2 110.152 35.2ZM107.372 28.86H111.412C111.412 28.56 111.355 28.26 111.242 27.96C111.129 27.6533 110.939 27.3967 110.672 27.19C110.412 26.9833 110.059 26.88 109.612 26.88C108.972 26.88 108.469 27.0667 108.102 27.44C107.735 27.8133 107.492 28.2867 107.372 28.86ZM120.497 35V21H125.477C126.55 21 127.457 21.16 128.197 21.48C128.937 21.8 129.497 22.2933 129.877 22.96C130.264 23.6267 130.457 24.48 130.457 25.52C130.457 26.5733 130.267 27.4433 129.887 28.13C129.507 28.81 128.95 29.3167 128.217 29.65C127.484 29.9767 126.59 30.14 125.537 30.14H123.057V35H120.497ZM123.057 28H125.237C126.11 28 126.764 27.8033 127.197 27.41C127.637 27.0167 127.857 26.4 127.857 25.56C127.857 24.72 127.634 24.1067 127.187 23.72C126.747 23.3333 126.077 23.14 125.177 23.14H123.057V28ZM134.493 35.2C133.9 35.2 133.413 35.0833 133.033 34.85C132.66 34.61 132.383 34.2933 132.203 33.9C132.023 33.5 131.933 33.06 131.933 32.58V20H134.413V31.56C134.413 32.0933 134.443 32.4733 134.503 32.7C134.57 32.92 134.69 33.0533 134.863 33.1C135.037 33.14 135.287 33.16 135.613 33.16L135.393 35.2H134.493ZM139.347 35.2C138.814 35.2 138.327 35.0833 137.887 34.85C137.447 34.61 137.097 34.2667 136.837 33.82C136.577 33.3733 136.447 32.8333 136.447 32.2C136.447 31.6333 136.577 31.15 136.837 30.75C137.104 30.3433 137.451 30.0067 137.877 29.74C138.311 29.4667 138.777 29.2533 139.277 29.1C139.784 28.94 140.281 28.8233 140.767 28.75C141.261 28.6767 141.694 28.6333 142.067 28.62C142.041 28.0467 141.894 27.63 141.627 27.37C141.361 27.11 140.907 26.98 140.267 26.98C139.821 26.98 139.384 27.0433 138.957 27.17C138.537 27.29 138.061 27.48 137.527 27.74L137.307 25.72C137.907 25.4267 138.507 25.2067 139.107 25.06C139.714 24.9133 140.327 24.84 140.947 24.84C141.694 24.84 142.337 24.9733 142.877 25.24C143.417 25.5067 143.834 25.9367 144.127 26.53C144.421 27.1167 144.567 27.8933 144.567 28.86V31.56C144.567 32.06 144.591 32.4233 144.637 32.65C144.684 32.87 144.771 33.01 144.897 33.07C145.024 33.13 145.207 33.16 145.447 33.16H145.767L145.547 35.2H144.647C144.274 35.2 143.941 35.15 143.647 35.05C143.361 34.9567 143.114 34.8233 142.907 34.65C142.701 34.4767 142.534 34.2733 142.407 34.04C142.081 34.4067 141.637 34.6933 141.077 34.9C140.524 35.1 139.947 35.2 139.347 35.2ZM140.387 33.3C140.607 33.3 140.881 33.2433 141.207 33.13C141.534 33.01 141.827 32.8267 142.087 32.58V30.3C141.621 30.32 141.154 30.3967 140.687 30.53C140.221 30.6633 139.831 30.86 139.517 31.12C139.204 31.38 139.047 31.7067 139.047 32.1C139.047 32.5067 139.154 32.81 139.367 33.01C139.581 33.2033 139.921 33.3 140.387 33.3ZM147.538 39.84L149.758 34.34L145.598 25H148.358L150.918 31.44L153.518 25H156.278L150.018 39.84H147.538Z" fill="#989898"/>
<path d="M15.4769 10.5386C15.1539 10.8617 14.9385 11.4001 14.9385 12.0463V35.8463C14.9385 36.4924 15.1539 37.0309 15.4769 37.354L15.5846 37.4616L28.9385 24.1078V24.0001V23.8924L15.4769 10.5386Z" fill="url(#paint0_linear_118_79)"/>
<path d="M33.3539 28.6309L28.9385 24.2155V24.0001V23.8924L33.3539 19.4771H33.4616L38.7385 22.4924C40.2462 23.354 40.2462 24.754 38.7385 25.6155L33.3539 28.6309Z" fill="url(#paint1_linear_118_79)"/>
<path d="M33.4617 28.5231L28.8309 24L15.4771 37.4615C15.9078 38 16.7694 38 17.7386 37.4615L33.4617 28.5231Z" fill="url(#paint2_linear_118_79)"/>
<path d="M33.4617 19.4771L17.7386 10.5386C16.7694 10.0002 15.9078 10.0002 15.4771 10.5386L28.8309 24.0001L33.4617 19.4771Z" fill="url(#paint3_linear_118_79)"/>
<defs>
<linearGradient id="paint0_linear_118_79" x1="27.6904" y1="11.84" x2="9.61708" y2="29.9134" gradientUnits="userSpaceOnUse">
<stop stop-color="#00A0FF"/>
<stop offset="0.00657445" stop-color="#00A1FF"/>
<stop offset="0.2601" stop-color="#00BEFF"/>
<stop offset="0.5122" stop-color="#00D2FF"/>
<stop offset="0.7604" stop-color="#00DFFF"/>
<stop offset="1" stop-color="#00E3FF"/>
</linearGradient>
<linearGradient id="paint1_linear_118_79" x1="40.6509" y1="24.0003" x2="14.5927" y2="24.0003" gradientUnits="userSpaceOnUse">
<stop stop-color="#FFE000"/>
<stop offset="0.4087" stop-color="#FFBD00"/>
<stop offset="0.7754" stop-color="#FFA500"/>
<stop offset="1" stop-color="#FF9C00"/>
</linearGradient>
<linearGradient id="paint2_linear_118_79" x1="30.9507" y1="26.4714" x2="6.44177" y2="50.9804" gradientUnits="userSpaceOnUse">
<stop stop-color="#FF3A44"/>
<stop offset="1" stop-color="#C31162"/>
</linearGradient>
<linearGradient id="paint3_linear_118_79" x1="12.0726" y1="2.65015" x2="23.0168" y2="13.5944" gradientUnits="userSpaceOnUse">
<stop stop-color="#32A071"/>
<stop offset="0.0685" stop-color="#2DA771"/>
<stop offset="0.4762" stop-color="#15CF74"/>
<stop offset="0.8009" stop-color="#06E775"/>
<stop offset="1" stop-color="#00F076"/>
</linearGradient>
</defs>
</svg>
